<svg xmlns="http://www.w3.org/2000/svg" version="1.1" xmlns:xlink="http://www.w3.org/1999/xlink" xmlns:svgjs="http://svgjs.dev/svgjs" viewBox="0 0 800 800"><g transform="matrix(1,0,0,1,0,0)"><circle r="50" cx="684" cy="684" stroke-width="4" stroke="#ffffff" fill="none" opacity="0.1" transform="rotate(100, 400, 400)"></circle><circle r="49.625" cx="678.625" cy="680.8333333333334" stroke-width="4.354166666666667" stroke="#fefefe" fill="none" opacity="0.1375" transform="rotate(96.20833333333333, 400, 400)"></circle><circle r="49.25" cx="673.25" cy="677.6666666666666" stroke-width="4.708333333333333" stroke="#fdfefc" fill="none" opacity="0.175" transform="rotate(92.41666666666667, 400, 400)"></circle><circle r="48.875" cx="667.875" cy="674.5" stroke-width="5.0625" stroke="#fcfdfb" fill="none" opacity="0.2125" transform="rotate(88.625, 400, 400)"></circle><circle r="48.5" cx="662.5" cy="671.3333333333334" stroke-width="5.416666666666667" stroke="#fafcfa" fill="none" opacity="0.25" transform="rotate(84.83333333333333, 400, 400)"></circle><circle r="48.125" cx="657.125" cy="668.1666666666666" stroke-width="5.770833333333334" stroke="#f9fcf8" fill="none" opacity="0.2875" transform="rotate(81.04166666666667, 400, 400)"></circle><circle r="47.75" cx="651.75" cy="665" stroke-width="6.125" stroke="#f8fbf7" fill="none" opacity="0.32499999999999996" transform="rotate(77.25, 400, 400)"></circle><circle r="47.375" cx="646.375" cy="661.8333333333334" stroke-width="6.479166666666667" stroke="#f7faf6" fill="none" opacity="0.36250000000000004" transform="rotate(73.45833333333334, 400, 400)"></circle><circle r="47" cx="641" cy="658.6666666666666" stroke-width="6.833333333333334" stroke="#f6faf4" fill="none" opacity="0.4" transform="rotate(69.66666666666667, 400, 400)"></circle><circle r="46.625" cx="635.625" cy="655.5" stroke-width="7.1875" stroke="#f5f9f3" fill="none" opacity="0.4375" transform="rotate(65.875, 400, 400)"></circle><circle r="46.25" cx="630.25" cy="652.3333333333334" stroke-width="7.541666666666667" stroke="#f3f8f2" fill="none" opacity="0.475" transform="rotate(62.083333333333336, 400, 400)"></circle><circle r="45.875" cx="624.875" cy="649.1666666666666" stroke-width="7.895833333333334" stroke="#f2f8f0" fill="none" opacity="0.5125" transform="rotate(58.29166666666667, 400, 400)"></circle><circle r="45.5" cx="619.5" cy="646" stroke-width="8.25" stroke="#f1f7ef" fill="none" opacity="0.5499999999999999" transform="rotate(54.5, 400, 400)"></circle><circle r="45.125" cx="614.125" cy="642.8333333333334" stroke-width="8.604166666666668" stroke="#f0f6ee" fill="none" opacity="0.5875" transform="rotate(50.708333333333336, 400, 400)"></circle><circle r="44.75" cx="608.75" cy="639.6666666666666" stroke-width="8.958333333333334" stroke="#eff6ec" fill="none" opacity="0.625" transform="rotate(46.91666666666667, 400, 400)"></circle><circle r="44.375" cx="603.375" cy="636.5" stroke-width="9.3125" stroke="#edf5eb" fill="none" opacity="0.6625" transform="rotate(43.125, 400, 400)"></circle><circle r="44" cx="598" cy="633.3333333333334" stroke-width="9.666666666666668" stroke="#ecf4ea" fill="none" opacity="0.7" transform="rotate(39.333333333333336, 400, 400)"></circle><circle r="43.625" cx="592.625" cy="630.1666666666666" stroke-width="10.020833333333334" stroke="#ebf4e8" fill="none" opacity="0.7374999999999999" transform="rotate(35.54166666666667, 400, 400)"></circle><circle r="43.25" cx="587.25" cy="627" stroke-width="10.375" stroke="#eaf3e7" fill="none" opacity="0.7749999999999999" transform="rotate(31.75, 400, 400)"></circle><circle r="42.875" cx="581.875" cy="623.8333333333334" stroke-width="10.729166666666668" stroke="#e8f2e5" fill="none" opacity="0.8125" transform="rotate(27.958333333333343, 400, 400)"></circle><circle r="42.5" cx="576.5" cy="620.6666666666666" stroke-width="11.083333333333334" stroke="#e7f2e4" fill="none" opacity="0.85" transform="rotate(24.16666666666667, 400, 400)"></circle><circle r="42.125" cx="571.125" cy="617.5" stroke-width="11.4375" stroke="#e6f1e2" fill="none" opacity="0.8875" transform="rotate(20.375, 400, 400)"></circle><circle r="41.75" cx="565.75" cy="614.3333333333334" stroke-width="11.791666666666668" stroke="#e5f0e1" fill="none" opacity="0.9249999999999999" transform="rotate(16.583333333333343, 400, 400)"></circle><circle r="41.375" cx="560.375" cy="611.1666666666666" stroke-width="12.145833333333334" stroke="#e3f0df" fill="none" opacity="0.9624999999999999" transform="rotate(12.791666666666671, 400, 400)"></circle><circle r="41" cx="555" cy="608" stroke-width="12.5" stroke="#e2efde" fill="none" opacity="0.9999999999999999" transform="rotate(9, 400, 400)"></circle></g></svg>